<svg width="197" height="100" viewBox="0 0 197 100" fill="none" xmlns="http://www.w3.org/2000/svg">
<path d="M40.4892 0V43.3453H32.5345V23.2713H11.4545V34.5411L13.475 36.1317L4.41063 43.3453H3.42822V0H11.4545V22.476H32.5345V8.87983L30.506 7.22555L39.5068 0H40.4892Z" fill="#1D1D1B"/>
<path d="M70.0027 14.5136L72.6993 8.51281L72.6397 4.28564H77.1619L72.0948 15.3089C78.0966 17.8818 82.0381 23.1468 82.0381 28.905C82.0183 36.9815 74.3778 44.1395 63.9492 44.1395C62.3196 44.1454 60.695 43.9599 59.1087 43.5867L55.7996 50.8998V55.2462H51.7069L57.1598 43.0618C50.4222 40.7355 45.9517 35.1086 45.9517 28.913C45.9517 20.8921 53.6081 13.6626 63.9611 13.6626C66.0051 13.6585 68.0393 13.945 70.0027 14.5136ZM67.3776 20.3314C64.1958 18.3709 60.5803 17.0864 57.1479 17.0864C52.5541 17.0864 49.9887 19.5957 49.9887 23.1468C49.9887 27.8631 54.2763 33.4861 59.8525 37.1128L67.3776 20.3314ZM77.9733 34.6473C77.9733 30.2968 74.2386 25.1033 69.2748 21.5244L61.6184 38.1745C64.5617 39.7652 67.7436 40.7474 70.8061 40.7474C75.4039 40.7275 77.9574 38.2143 77.9574 34.6632L77.9733 34.6473Z" fill="#1D1D1B"/>
<path d="M123.173 33.9882C123.173 41.0348 112.391 44.1564 105.1 44.1564C98.9752 44.1564 91.3188 42.2596 88.2562 37.6029L92.85 33.9285C96.5887 38.3982 105.287 41.8818 111.941 41.8818C115.123 41.8818 119.101 40.9632 119.101 37.8415C119.101 35.6981 117.203 33.6143 115.425 32.2066C112.131 33.4133 108.645 34.0142 105.136 33.9802C97.8456 33.9802 87.063 30.8585 87.063 23.8756C87.063 16.8926 97.8734 13.7192 105.1 13.7192C110.124 13.7192 115.513 14.8804 119.311 17.5766L114.594 21.3743C110.43 18.3719 103.999 15.9859 98.2871 15.9859C95.1052 15.9859 91.1278 16.9045 91.1278 20.0262C91.1278 22.1696 93.025 24.2533 94.8029 25.6611C98.0961 24.448 101.583 23.8457 105.092 23.8835C112.391 23.8835 123.173 27.0092 123.173 33.9882ZM111.902 31.7254C112.783 31.7266 113.663 31.6641 114.535 31.5385C110.677 28.7231 104.062 26.1502 98.303 26.1502C97.4221 26.1495 96.5423 26.2106 95.67 26.3331C99.528 29.1526 106.142 31.7254 111.902 31.7254Z" fill="#1D1D1B"/>
<path d="M133.834 35.0942C133.834 38.6454 136.773 40.912 141.244 40.912C144.676 40.912 148.105 39.6236 150.861 38.1562V43.974L147.862 44.157C137.938 44.829 129.853 37.7268 129.853 29.7655V15.3105H123.051V14.4555H129.853V8.88819L127.832 7.29754L136.821 0.0600586H137.859V14.4555H146.009V15.3105H137.875V26.8427C135.731 29.1531 133.834 32.0919 133.834 35.0942Z" fill="#1D1D1B"/>
<path d="M44.1486 83.8473C44.1486 93.2759 33.5688 99.0181 20.5828 99.0181C9.54563 99.0181 2.26709 94.8069 0 87.2155L10.4127 83.1116C9.49393 91.1961 17.9458 96.0317 29.1579 96.0317C34.9132 96.0317 39.324 93.8286 39.324 89.5418C39.324 86.7224 37.6098 83.9745 35.466 81.6402C31.553 83.6096 27.2265 84.6171 22.8459 84.579C10.7826 84.579 1.53128 77.6 1.53128 69.3922C1.53128 61.1248 10.9019 54.448 22.9095 54.448L41.7622 54.9371L41.5792 56.8976L34.8535 64.9225C34.1813 60.3891 21.4379 57.5736 14.7639 57.5736C9.49393 57.5736 6.30807 59.9596 6.30807 63.634C6.30807 66.4535 8.02231 69.2689 10.1701 71.5873C13.8451 69.5672 18.1924 68.5889 22.8459 68.5889C34.6029 68.5969 44.1486 75.7628 44.1486 83.8473ZM30.8563 81.1511C32.1182 81.169 33.3772 81.026 34.6029 80.7256C30.379 76.4984 22.476 72.0287 14.7599 72.0287C13.5173 72.007 12.2785 72.1718 11.0849 72.5178C15.2531 76.6814 23.2158 81.1511 30.8722 81.1511H30.8563Z" fill="#1D1D1B"/>
<path d="M72.2799 95.6062C74.2407 95.6062 76.2015 95.1131 77.5499 93.9519L78.2857 94.5643C74.6628 97.4869 70.1374 99.0611 65.4826 99.0181C55.1415 99.0181 47.4731 91.8602 47.4731 83.7677C47.4731 75.7469 55.1295 68.5173 65.4826 68.5173C71.3611 68.5173 76.814 70.9669 80.1232 74.8283L74.4873 79.6002C70.9952 75.9536 64.6871 71.977 58.6813 71.977C54.0875 71.977 51.5221 74.4863 51.5221 78.0374C51.5141 85.6209 62.6626 95.6062 72.2799 95.6062Z" fill="#1D1D1B"/>
<path d="M116.439 91.7449L117.6 93.2759C113.129 96.6321 109.701 99.0181 103.083 99.0181C92.7415 99.0181 85.0771 91.8602 85.0771 83.7677C85.0771 75.7469 92.7335 68.5173 103.083 68.5173C113.495 68.5173 121.156 75.7469 121.156 83.7677H91.1386C94.2648 89.0368 102.41 95.5266 110.19 95.5266C112.883 95.5266 116.069 94.4251 116.192 91.9119L116.439 91.7449ZM89.2414 77.8266C89.2414 79.6042 89.8539 81.3181 90.6494 82.9128H114.545C111.24 78.0096 103.52 72.0724 96.0467 72.0724C91.6915 72.0884 89.2414 74.4147 89.2414 77.8425V77.8266Z" fill="#1D1D1B"/>
<path d="M155.706 82.9885V98.223H147.679L147.62 82.9726C147.62 79.6641 148.968 69.3765 142.354 69.3765C139.104 69.3765 135.004 71.7625 133.532 74.0928L136.654 76.5424L134.634 78.1967V98.223H126.611V69.3924H127.59L131.018 72.0886C133.775 70.2514 138.862 68.5334 143.455 68.5334C150.623 68.5334 155.706 72.6373 155.706 82.9885Z" fill="#1D1D1B"/>
<path d="M196.677 81.0915V98.2228H195.687L192.318 95.5266C188.46 97.9762 183.496 99.0181 178.596 99.0181C171.437 99.0181 160.587 95.9561 160.587 88.9731C160.587 82.0538 171.429 78.9918 178.596 78.9918C182.948 78.9918 187.418 79.7871 191.093 81.7476C192.624 80.5228 193.849 78.8089 193.849 77.0313C193.849 73.4166 189.132 72.0724 185.398 72.0724C180.251 72.0724 174.309 74.0926 171.37 77.5204C170.796 77.1195 170.325 76.5889 169.996 75.9719C169.666 75.3548 169.487 74.6687 169.472 73.9693C169.472 69.8654 174.738 68.5173 178.966 68.5173C187.247 68.5332 196.677 73.9852 196.677 81.0915ZM191.658 95.0097L186.818 91.1523L188.655 89.6213V86.9689C184.491 83.7876 177.69 81.2108 171.811 81.2108C168.685 81.2108 164.652 82.1294 164.652 85.255C164.652 91.6176 178.572 96.7872 185.477 96.7872C187.613 96.7674 190.186 96.4015 191.658 94.9898V95.0097Z" fill="#1D1D1B"/>
</svg>
